name C:\Users\u0101727\Documents\MyRepositories\paper-ad\predictivesimulations_2d/Results/PredSim_2D/IK_c28.mot
datacolumns 11
datarows 51
range 0.00000000 0.36643954
endheader
time	pelvis_tilt	pelvis_tx	pelvis_ty	hip_flexion_l	hip_flexion_r	knee_angle_l	knee_angle_r	ankle_angle_l	ankle_angle_r	lumbar_extension	
          0.00000000	        -10.50635910	          0.00000000	          0.91072265	         35.92517332	         -4.35837542	        -35.93919529	          2.77383815	         -2.03144376	         11.58957323	          4.64852718	
          0.00732879	        -10.50628989	          0.00943735	          0.90286028	         36.21620297	         -4.63961748	        -36.55002261	          2.49934870	          0.27048512	         13.31371487	          4.57132131	
          0.01465758	        -10.49983903	          0.01910830	          0.89479694	         36.24051225	         -4.93785111	        -37.57111786	          1.86252464	          2.56745148	         14.98950923	          4.52286294	
          0.02198637	        -10.49140036	          0.02890868	          0.88700211	         36.06041090	         -5.22241938	        -38.77002590	          0.90840189	          4.84040758	         16.62664415	          4.49411851	
          0.02931516	        -10.48353372	          0.03877505	          0.88023642	         35.79522831	         -5.47197947	        -39.84406799	         -0.12129001	          7.16736920	         18.23601116	          4.47864676	
          0.03664395	        -10.47994094	          0.04883566	          0.87499739	         35.47892488	         -5.69484220	        -40.82787922	         -1.20395062	          9.36974753	         19.64497318	          4.49587818	
          0.04397274	        -10.47676041	          0.05913428	          0.87126408	         35.10799702	         -5.86505975	        -41.69454399	         -2.37374359	         11.24031091	         20.66229723	          4.54679251	
          0.05130154	        -10.46664289	          0.06962683	          0.86874729	         34.63742712	         -5.96349297	        -42.37093630	         -3.66238653	         12.75094912	         21.23903028	          4.61834470	
          0.05863033	        -10.45245637	          0.08021934	          0.86714956	         34.06250929	         -5.98629723	        -42.83276663	         -5.05756560	         13.90667025	         21.40828634	          4.70391538	
          0.06595912	        -10.43635289	          0.09084938	          0.86633658	         33.38029904	         -5.93653910	        -43.06495232	         -6.54663227	         14.72674592	         21.21575255	          4.79983524	
          0.07328791	        -10.41797469	          0.10151002	          0.86632125	         32.59246219	         -5.81624498	        -43.07124209	         -8.12662039	         15.23382973	         20.67321604	          4.90610130	
          0.08061670	        -10.39534589	          0.11221913	          0.86714218	         31.69925465	         -5.62016694	        -42.85493287	         -9.80239743	         15.43359294	         19.76598875	          5.02369132	
          0.08794549	        -10.36661100	          0.12299255	          0.86880614	         30.69687589	         -5.34142951	        -42.40942083	        -11.57873011	         15.31403649	         18.47441975	          5.15336567	
          0.09527428	        -10.32990483	          0.13383242	          0.87130807	         29.59093680	         -4.96862968	        -41.74494010	        -13.46226040	         14.87595793	         16.77233718	          5.29412202	
          0.10260307	        -10.28352805	          0.14473588	          0.87462836	         28.38944420	         -4.48957426	        -40.87648094	        -15.45817411	         14.12694882	         14.63045544	          5.44436843	
          0.10993186	        -10.22611694	          0.15569401	          0.87872897	         27.10432839	         -3.89201718	        -39.82498773	        -17.56865479	         13.07395209	         12.01709595	          5.60183257	
          0.11726065	        -10.15688496	          0.16668824	          0.88355301	         25.75011172	         -3.16128842	        -38.61324985	        -19.78009650	         11.71896707	          8.90899012	          5.76315835	
          0.12458944	        -10.07635522	          0.17770122	          0.88901171	         24.34648745	         -2.30380445	        -37.27173515	        -22.10519249	         10.06437971	          5.28559159	          5.92586925	
          0.13191823	         -9.98753202	          0.18868999	          0.89499116	         22.90734376	         -1.32366909	        -35.81726513	        -24.39202006	          8.14347606	          1.58499705	          6.08628997	
          0.13924703	         -9.89505221	          0.19960109	          0.90131271	         21.45257700	         -0.24901079	        -34.27848080	        -26.50712615	          6.01933884	         -1.76353148	          6.24054299	
          0.14657582	         -9.80112229	          0.21040413	          0.90782641	         20.02653230	          0.88059077	        -32.72782548	        -28.49382327	          3.70813030	         -4.79648373	          6.38458576	
          0.15390461	         -9.70701000	          0.22108764	          0.91447673	         18.65636702	          2.05770434	        -31.21001799	        -30.34465056	          1.22985006	         -7.53019223	          6.51566645	
          0.16123340	         -9.61528515	          0.23165557	          0.92119420	         17.33201551	          3.28106972	        -29.70680354	        -32.06192327	         -1.36062461	         -9.97766610	          6.63417904	
          0.16856219	         -9.52839065	          0.24210930	          0.92788937	         16.04675078	          4.54463848	        -28.24883466	        -33.64437494	         -3.97714907	        -12.15222089	          6.73924890	
          0.17589098	         -9.45148135	          0.25238889	          0.93444161	         14.85846394	          5.83699102	        -26.80018615	        -35.05981006	         -6.18876759	        -14.06876292	          6.82400317	
          0.18321977	         -9.38977480	          0.26249338	          0.94060729	         13.73484387	          7.15094823	        -25.29489913	        -36.30948231	         -7.85480769	        -15.73916702	          6.88900597	
          0.19054856	         -9.34430658	          0.27245871	          0.94620451	         12.61243278	          8.48395973	        -23.75482350	        -37.41866715	         -9.22233873	        -17.17156699	          6.93720115	
          0.19787735	         -9.31506358	          0.28226623	          0.95122091	         11.51394172	          9.83293104	        -22.17621797	        -38.38389915	        -10.31528597	        -18.37490462	          6.96574284	
          0.20520614	         -9.30170831	          0.29191777	          0.95565615	         10.44289967	         11.19505425	        -20.56952296	        -39.20463610	        -11.13568653	        -19.35948527	          6.97475185	
          0.21253493	         -9.30351441	          0.30141865	          0.95951044	          9.40178174	         12.56756509	        -18.94846865	        -39.88118198	        -11.68704135	        -20.13433723	          6.96475363	
          0.21986372	         -9.31956186	          0.31077677	          0.96278413	          8.39268853	         13.94631831	        -17.32293466	        -40.41670096	        -11.97556372	        -20.70950065	          6.93663467	
          0.22719252	         -9.34875361	          0.32000146	          0.96547800	          7.41740753	         15.32696393	        -15.70257150	        -40.81563151	        -12.01323367	        -21.09456542	          6.89142388	
          0.23452131	         -9.38991524	          0.32910313	          0.96759325	          6.47705937	         16.70530505	        -14.09589953	        -41.08343256	        -11.81929020	        -21.29870556	          6.83030792	
          0.24185010	         -9.44176443	          0.33809285	          0.96913160	          5.57224814	         18.07755691	        -12.51125099	        -41.22675333	        -11.42192617	        -21.33170008	          6.75451009	
          0.24917889	         -9.50294943	          0.34698256	          0.97009514	          4.70291013	         19.44031691	        -10.95712029	        -41.25282604	        -10.85355058	        -21.20248818	          6.66535247	
          0.25650768	         -9.57203020	          0.35578462	          0.97048609	          3.86870334	         20.79039297	         -9.44249666	        -41.16871273	        -10.13826361	        -20.92050050	          6.56414984	
          0.26383647	         -9.64757688	          0.36451120	          0.97030669	          3.06965975	         22.12447872	         -7.97685570	        -40.98017729	         -9.29029467	        -20.49478630	          6.45219608	
          0.27116526	         -9.72812451	          0.37317461	          0.96955928	          2.30610907	         23.43915750	         -6.56970635	        -40.69285827	         -8.31934420	        -19.93434373	          6.33077735	
          0.27849405	         -9.81208556	          0.38178868	          0.96824637	          1.57751992	         24.73081637	         -5.22814338	        -40.31419334	         -7.23266530	        -19.24804810	          6.20133094	
          0.28582284	         -9.89773407	          0.39036891	          0.96637101	          0.88337521	         25.99491170	         -3.95893542	        -39.85435141	         -6.03701962	        -18.44447439	          6.06543691	
          0.29315163	         -9.98329089	          0.39893204	          0.96393723	          0.22422296	         27.22524075	         -2.77118961	        -39.32676775	         -4.73985059	        -17.53136830	          5.92477949	
          0.30048042	        -10.06701672	          0.40749652	          0.96095047	         -0.39927488	         28.41360951	         -1.67452294	        -38.74953129	         -3.34946831	        -16.51482863	          5.78124807	
          0.30780921	        -10.14727665	          0.41608224	          0.95741795	         -0.98664994	         29.54996253	         -0.67788497	        -38.14609074	         -1.87501131	        -15.39820902	          5.63694062	
          0.31513800	        -10.22254168	          0.42470858	          0.95334839	         -1.53748785	         30.62425382	          0.21043022	        -37.54371166	         -0.32648716	        -14.18093340	          5.49392514	
          0.32246680	        -10.29136837	          0.43339215	          0.94875123	         -2.05126642	         31.62890748	          0.98265921	        -36.97093866	          1.28521841	        -12.85767381	          5.35394453	
          0.32979559	        -10.35239833	          0.44214635	          0.94363605	         -2.52732380	         32.55926747	          1.63149167	        -36.45687054	          2.94838546	        -11.41822804	          5.21835623	
          0.33712438	        -10.40439189	          0.45098249	          0.93801295	         -2.96488766	         33.41196713	          2.14965895	        -36.03225459	          4.65050427	         -9.84838059	          5.08828661	
          0.34445317	        -10.44629634	          0.45991096	          0.93189293	         -3.36441273	         34.18395675	          2.52964964	        -35.72956992	          6.37842315	         -8.13219255	          4.96481206	
          0.35178196	        -10.47738516	          0.46894244	          0.92528910	         -3.72851433	         34.87026717	          2.76672486	        -35.58399201	          8.11871537	         -6.25674512	          4.84920556	
          0.35911075	        -10.49736957	          0.47808890	          0.91822065	         -4.06047238	         35.45949762	          2.85653770	        -35.63647302	          9.85700236	         -4.21977360	          4.74311489	
          0.36643954	        -10.50635910	          0.48736459	          0.91072265	         -4.35837542	         35.92517332	          2.77383815	        -35.93919529	         11.58957323	         -2.03144376	          4.64852718	
